<svg width="44" height="40" viewBox="0 0 44 40" fill="none" xmlns="http://www.w3.org/2000/svg">
<path d="M24.2 40H19C19 40 19.3333 39.7917 20 39.375C20.6667 38.9583 21.3917 38.4917 22.175 37.975C22.9583 37.4583 23.6833 36.9917 24.35 36.575C25.0167 36.1583 25.35 35.95 25.35 35.95C28.05 35.75 30.5417 34.9333 32.825 33.5C35.1083 32.0667 36.9167 30.15 38.25 27.75C35.3833 27.4833 32.6667 26.7583 30.1 25.575C27.5333 24.3917 25.2333 22.7833 23.2 20.75C21.1667 18.7167 19.55 16.4167 18.35 13.85C17.15 11.2833 16.4333 8.56667 16.2 5.7C13.6333 7.13333 11.625 9.10833 10.175 11.625C8.725 14.1417 8 16.8667 8 19.8C8 19.8667 8 19.9667 8 20.1C8 20.2333 8 20.3333 8 20.4C8 20.4 7.8 20.4917 7.4 20.675C7 20.8583 6.55833 21.05 6.075 21.25C5.59167 21.45 5.15 21.6417 4.75 21.825C4.35 22.0083 4.15 22.1 4.15 22.1C4.08333 21.7333 4.04167 21.35 4.025 20.95C4.00833 20.55 4 20.1667 4 19.8C4 14.9333 5.55 10.6417 8.65 6.925C11.75 3.20833 15.7 0.9 20.5 0C19.9 3.3 20.0833 6.525 21.05 9.675C22.0167 12.825 23.6833 15.5833 26.05 17.95C28.4167 20.3167 31.175 21.9833 34.325 22.95C37.475 23.9167 40.7 24.1 44 23.5C43.1333 28.3 40.8333 32.25 37.1 35.35C33.3667 38.45 29.0667 40 24.2 40ZM10 36H19C19.8333 36 20.5417 35.7083 21.125 35.125C21.7083 34.5417 22 33.8333 22 33C22 32.1667 21.7167 31.4583 21.15 30.875C20.5833 30.2917 19.9 30 19.1 30H16.5L15.5 27.6C15.0333 26.5 14.3 25.625 13.3 24.975C12.3 24.325 11.2 24 10 24C8.33333 24 6.91667 24.575 5.75 25.725C4.58333 26.875 4 28.3 4 30C4 31.6667 4.58333 33.0833 5.75 34.25C6.91667 35.4167 8.33333 36 10 36ZM10 40C7.23333 40 4.875 39.025 2.925 37.075C0.975 35.125 0 32.7667 0 30C0 27.2333 0.975 24.875 2.925 22.925C4.875 20.975 7.23333 20 10 20C12 20 13.825 20.5417 15.475 21.625C17.125 22.7083 18.35 24.1667 19.15 26C21.05 26.0667 22.6667 26.775 24 28.125C25.3333 29.475 26 31.1 26 33C26 34.9333 25.3167 36.5833 23.95 37.95C22.5833 39.3167 20.9333 40 19 40H10Z" fill="white"/>
</svg>
