<svg width="44" height="40" viewBox="0 0 44 40" fill="none" xmlns="http://www.w3.org/2000/svg">
<path d="M35.97 15.25L32.89 11.625L37.62 6.375L40.7 9.875L35.97 15.25V15.25M0 40V35H44V40H0V40M19.8 7.5V0H24.2V7.5H19.8V7.5M8.03 15.125L3.41 9.75L6.49 6.25L11.22 11.625L8.03 15.125V15.125M11.935 25H32.065C31.2217 22.75 29.9017 20.9375 28.105 19.5625C26.3083 18.1875 24.2733 17.5 22 17.5C19.7267 17.5 17.6917 18.1875 15.895 19.5625C14.0983 20.9375 12.7783 22.75 11.935 25V25M6.6 30C6.6 25.125 8.09417 20.9896 11.0825 17.5938C14.0708 14.1979 17.71 12.5 22 12.5C26.29 12.5 29.9292 14.1979 32.9175 17.5938C35.9058 20.9896 37.4 25.125 37.4 30H6.6V30M22 25V25V25V25V25V25V25" fill="white"/>
</svg>
